<svg xmlns="http://www.w3.org/2000/svg" viewBox="0 0 1200 900" role="img" aria-labelledby="title desc">
  <title id="title">XETA Coiled Cable Ivory</title>
  <desc id="desc">Minimal product placeholder for the XETA Coiled Cable.</desc>
  <defs>
    <linearGradient id="bg" x1="0" y1="0" x2="1" y2="1">
      <stop offset="0%" stop-color="#f7f1e7" />
      <stop offset="100%" stop-color="#d8cbb8" />
    </linearGradient>
    <linearGradient id="cable" x1="0" y1="0" x2="1" y2="1">
      <stop offset="0%" stop-color="#f5efe3" />
      <stop offset="100%" stop-color="#b6aa98" />
    </linearGradient>
  </defs>
  <rect width="1200" height="900" rx="64" fill="url(#bg)" />
  <circle cx="960" cy="170" r="180" fill="#ece4d7" opacity="0.95" />
  <circle cx="240" cy="760" r="220" fill="#b7a68e" opacity="0.22" />
  <g transform="translate(120 170)">
    <path d="M180 330c0-145 120-265 270-265s270 120 270 265-120 265-270 265S180 475 180 330Zm120 0c0 79 62 145 150 145s150-66 150-145-62-145-150-145-150 66-150 145Z" fill="none" stroke="url(#cable)" stroke-width="34" stroke-linecap="round" />
    <path d="M620 330h220" fill="none" stroke="url(#cable)" stroke-width="34" stroke-linecap="round" />
    <rect x="800" y="286" width="120" height="88" rx="18" fill="#f8f2e8" stroke="#a99d8a" stroke-width="8" />
    <text x="20" y="740" fill="#463e33" font-family="Arial, Helvetica, sans-serif" font-size="54" font-weight="700" letter-spacing="6">XETA COILED CABLE</text>
    <text x="20" y="792" fill="#6f6659" font-family="Arial, Helvetica, sans-serif" font-size="28">Ivory braided USB-C cable</text>
  </g>
</svg>