<svg xmlns="http://www.w3.org/2000/svg" viewBox="0 0 1200 900" role="img" aria-labelledby="title desc">
  <title id="title">XETA K1 Mini Onyx</title>
  <desc id="desc">Minimal product placeholder for the XETA K1 Mini keyboard.</desc>
  <defs>
    <linearGradient id="bg" x1="0" y1="0" x2="1" y2="1">
      <stop offset="0%" stop-color="#15161a" />
      <stop offset="100%" stop-color="#43464f" />
    </linearGradient>
    <linearGradient id="board" x1="0" y1="0" x2="1" y2="1">
      <stop offset="0%" stop-color="#666a72" />
      <stop offset="100%" stop-color="#24272d" />
    </linearGradient>
  </defs>
  <rect width="1200" height="900" rx="64" fill="url(#bg)" />
  <circle cx="890" cy="180" r="180" fill="#8a8f9c" opacity="0.15" />
  <circle cx="240" cy="770" r="220" fill="#0b0c0f" opacity="0.45" />
  <g transform="translate(235 260)">
    <rect x="0" y="120" width="720" height="280" rx="34" fill="url(#board)" stroke="#9ea3ad" stroke-width="10" />
    <g fill="#d7dbe2">
      <rect x="60" y="170" width="72" height="72" rx="12" />
      <rect x="150" y="170" width="72" height="72" rx="12" />
      <rect x="240" y="170" width="72" height="72" rx="12" />
      <rect x="330" y="170" width="72" height="72" rx="12" />
      <rect x="420" y="170" width="72" height="72" rx="12" />
      <rect x="510" y="170" width="72" height="72" rx="12" />
      <rect x="600" y="170" width="72" height="72" rx="12" />
      <rect x="105" y="260" width="72" height="72" rx="12" />
      <rect x="195" y="260" width="72" height="72" rx="12" />
      <rect x="285" y="260" width="72" height="72" rx="12" />
      <rect x="375" y="260" width="72" height="72" rx="12" />
      <rect x="465" y="260" width="72" height="72" rx="12" />
      <rect x="555" y="260" width="117" height="72" rx="12" />
    </g>
    <text x="0" y="520" fill="#f3f5f8" font-family="Arial, Helvetica, sans-serif" font-size="54" font-weight="700" letter-spacing="6">XETA K1 MINI</text>
    <text x="0" y="570" fill="#b1b6c0" font-family="Arial, Helvetica, sans-serif" font-size="28">Onyx compact keyboard</text>
  </g>
</svg>